<svg width="115" height="40" viewBox="0 0 115 40" fill="none" xmlns="http://www.w3.org/2000/svg">
<path d="M67.368 11.32V28H64.632V16.576L59.544 28H57.648L52.536 16.576V28H49.8V11.32H52.752L58.608 24.4L64.44 11.32H67.368ZM83.4401 14.776V28H80.7041V26.44C80.2721 26.984 79.7041 27.416 79.0001 27.736C78.3121 28.04 77.5761 28.192 76.7921 28.192C75.7521 28.192 74.8161 27.976 73.9841 27.544C73.1681 27.112 72.5201 26.472 72.0401 25.624C71.5761 24.776 71.3441 23.752 71.3441 22.552V14.776H74.0561V22.144C74.0561 23.328 74.3521 24.24 74.9441 24.88C75.5361 25.504 76.3441 25.816 77.3681 25.816C78.3921 25.816 79.2001 25.504 79.7921 24.88C80.4001 24.24 80.7041 23.328 80.7041 22.144V14.776H83.4401ZM90.286 10.24V28H87.55V10.24H90.286ZM95.7701 13.024C95.2741 13.024 94.8581 12.856 94.5221 12.52C94.1861 12.184 94.0181 11.768 94.0181 11.272C94.0181 10.776 94.1861 10.36 94.5221 10.024C94.8581 9.688 95.2741 9.52 95.7701 9.52C96.2501 9.52 96.6581 9.688 96.9941 10.024C97.3301 10.36 97.4981 10.776 97.4981 11.272C97.4981 11.768 97.3301 12.184 96.9941 12.52C96.6581 12.856 96.2501 13.024 95.7701 13.024ZM97.1141 14.776V28H94.3781V14.776H97.1141ZM108.046 14.56C109.054 14.56 109.95 14.776 110.734 15.208C111.534 15.64 112.158 16.28 112.606 17.128C113.07 17.976 113.302 19 113.302 20.2V28H110.59V20.608C110.59 19.424 110.294 18.52 109.702 17.896C109.11 17.256 108.302 16.936 107.278 16.936C106.254 16.936 105.438 17.256 104.83 17.896C104.238 18.52 103.942 19.424 103.942 20.608V28H101.206V10.24H103.942V16.312C104.406 15.752 104.99 15.32 105.694 15.016C106.414 14.712 107.198 14.56 108.046 14.56Z" fill="#4BA586"/>
<circle cx="20" cy="20" r="20" fill="#4BA586"/>
<path d="M30.096 11.08V28H25.392V18.664L22.2 28H18.264L15.048 18.592V28H10.344V11.08H16.032L20.28 22.072L24.432 11.08H30.096Z" fill="#FEFEFF"/>
</svg>
