<svg width="115" height="40" fill="none" xmlns="http://www.w3.org/2000/svg"><path d="M67.368 11.32V28h-2.736V16.576L59.544 28h-1.896l-5.112-11.424V28H49.8V11.32h2.952l5.856 13.08 5.832-13.08h2.928Zm16.072 3.456V28h-2.736v-1.56c-.432.544-1 .976-1.704 1.296a5.402 5.402 0 0 1-2.208.456c-1.04 0-1.976-.216-2.808-.648-.816-.432-1.464-1.072-1.944-1.92-.464-.848-.696-1.872-.696-3.072v-7.776h2.712v7.368c0 1.184.296 2.096.888 2.736.592.624 1.4.936 2.424.936s1.832-.312 2.424-.936c.608-.64.912-1.552.912-2.736v-7.368h2.736Zm6.846-4.536V28H87.55V10.24h2.736Zm5.484 2.784c-.496 0-.912-.168-1.248-.504a1.695 1.695 0 0 1-.504-1.248c0-.496.168-.912.504-1.248a1.695 1.695 0 0 1 1.248-.504c.48 0 .888.168 1.224.504.336.336.504.752.504 1.248s-.168.912-.504 1.248a1.666 1.666 0 0 1-1.224.504Zm1.344 1.752V28h-2.736V14.776h2.736Zm10.932-.216c1.008 0 1.904.216 2.688.648.8.432 1.424 1.072 1.872 1.92.464.848.696 1.872.696 3.072V28h-2.712v-7.392c0-1.184-.296-2.088-.888-2.712-.592-.64-1.4-.96-2.424-.96s-1.84.32-2.448.96c-.592.624-.888 1.528-.888 2.712V28h-2.736V10.24h2.736v6.072a4.606 4.606 0 0 1 1.752-1.296 5.985 5.985 0 0 1 2.352-.456Z" fill="#4BA586"/><circle cx="20" cy="20" r="20" fill="#4BA586"/><path d="M30.096 11.08V28h-4.704v-9.336L22.2 28h-3.936l-3.216-9.408V28h-4.704V11.08h5.688l4.248 10.992 4.152-10.992h5.664Z" fill="#FEFEFF"/></svg>