<svg width="54" height="54" viewBox="0 0 54 54" fill="none" xmlns="http://www.w3.org/2000/svg">
<g id="Iconly/Bold/Graph">
<g id="Graph">
<path id="Graph_2" fill-rule="evenodd" clip-rule="evenodd" d="M27.7343 4.97174C28.0936 4.64923 28.5689 4.48017 29.0554 4.50186C39.3398 4.80972 47.9348 12.2756 49.4926 22.2539C49.5024 22.3135 49.5024 22.3743 49.4926 22.4338C49.5261 22.906 49.3665 23.3718 49.0491 23.7282C48.7318 24.0846 48.2827 24.3022 47.8013 24.333L30.5225 25.4725C29.9511 25.5231 29.3844 25.3351 28.9616 24.9546C28.5389 24.574 28.2992 24.0363 28.3015 23.4734L27.1401 6.50096V6.22109C27.1612 5.74375 27.375 5.29426 27.7343 4.97174ZM26.5492 29.9106L41.5256 28.951L41.6275 28.991C42.2706 29.0015 42.8831 29.2623 43.3302 29.7159C43.7773 30.1696 44.0223 30.7789 44.0114 31.4099C43.4213 40.0096 37.1164 47.195 28.5362 49.0461C19.9561 50.8972 11.1604 46.9698 6.94751 39.4063C5.70874 37.2279 4.92593 34.8287 4.64502 32.3495C4.53607 31.6148 4.48837 30.8727 4.50239 30.1305C4.53079 20.986 11.0414 13.093 20.1512 11.1589C21.254 10.9525 22.3596 11.5031 22.8408 12.4984C22.9606 12.6789 23.0564 12.8738 23.126 13.0781C23.2968 15.7141 23.474 18.3252 23.6503 20.9253C23.7896 22.9787 23.9285 25.0253 24.0633 27.0718C24.0564 27.5539 24.1322 28.0338 24.2875 28.4912C24.6531 29.3912 25.5631 29.9623 26.5492 29.9106Z" fill="#69B99D"/>
</g>
</g>
</svg>
